<svg xmlns="http://www.w3.org/2000/svg" viewBox="0 0 100 100">
  <defs>
    <linearGradient id="g" x1="0%" y1="0%" x2="100%" y2="100%">
      <stop offset="0%" stop-color="#38bdf8"/>
      <stop offset="100%" stop-color="#14b8a6"/>
    </linearGradient>
  </defs>
  <rect width="100" height="100" rx="20" fill="url(#g)"/>
  <path d="M50 25 C35 25 25 38 25 52 C25 68 50 80 50 80 C50 80 75 68 75 52 C75 38 65 25 50 25 Z" fill="white" opacity="0.9"/>
  <circle cx="42" cy="50" r="4" fill="#0c4a6e"/>
  <circle cx="58" cy="50" r="4" fill="#0c4a6e"/>
  <path d="M42 62 Q50 68 58 62" stroke="#0c4a6e" stroke-width="3" fill="none" stroke-linecap="round"/>
  <path d="M20 72 L30 68 M80 72 L70 68 M25 80 L35 78 M75 80 L65 78" stroke="white" stroke-width="3" stroke-linecap="round" opacity="0.7"/>
</svg>
